
      <svg data-logo="logo" xmlns="http://www.w3.org/2000/svg" viewBox="0 0 82 28">
        <g id="logogram" transform="translate(0, 14) rotate(0) "></g>
        <g id="logotype" transform="translate(0, 1)"><path fill="#000000" d="M5.08 26.28L5.08 26.28Q3.05 26.28 1.91 25.00Q0.77 23.73 0.77 21.41L0.77 21.41Q0.77 19.11 1.98 17.81Q3.19 16.52 5.36 15.74L5.36 15.74L8.58 14.55L8.58 13.12Q8.58 11.79 8.07 11.30Q7.56 10.81 6.72 10.81L6.72 10.81Q5.81 10.81 5.27 11.44Q4.73 12.07 4.55 13.75L4.55 13.75L0.95 13.29Q1.23 10.60 2.71 9.18Q4.20 7.76 6.90 7.76L6.90 7.76Q12.50 7.76 12.50 13.57L12.50 13.57L12.50 21.45Q12.50 22.32 12.51 23.23Q12.53 24.14 12.64 26L12.64 26L9.00 26L8.79 24.07Q8.23 25.20 7.26 25.74Q6.30 26.28 5.08 26.28ZM4.62 21.10L4.62 21.10Q4.62 22.43 5.09 22.95Q5.57 23.48 6.44 23.48L6.44 23.48Q7.42 23.48 8.00 22.83Q8.58 22.18 8.58 21.17L8.58 21.17L8.58 17.21L6.83 17.95Q5.81 18.41 5.22 19.07Q4.62 19.73 4.62 21.10ZM19.01 26L15.09 26L15.09 8.18L18.97 8.18L18.97 10.32Q19.60 8.99 20.63 8.38Q21.66 7.76 22.82 7.76L22.82 7.76Q24.68 7.76 25.76 9.02Q26.85 10.28 26.85 12.84L26.85 12.84L26.85 26L22.93 26L22.93 13.50Q22.93 12.07 22.45 11.47Q21.98 10.88 21.11 10.88L21.11 10.88Q20.27 10.88 19.64 11.46Q19.01 12.03 19.01 13.57L19.01 13.57L19.01 26ZM33.36 26L29.43 26L29.43 8.18L33.32 8.18L33.32 10.32Q33.95 8.99 34.98 8.38Q36.02 7.76 37.17 7.76L37.17 7.76Q39.02 7.76 40.11 9.02Q41.20 10.28 41.20 12.84L41.20 12.84L41.20 26L37.27 26L37.27 13.50Q37.27 12.07 36.80 11.47Q36.33 10.88 35.45 10.88L35.45 10.88Q34.62 10.88 33.98 11.46Q33.36 12.03 33.36 13.57L33.36 13.57L33.36 26ZM49.59 26.42L49.59 26.42Q47.74 26.42 46.30 25.53Q44.87 24.63 44.07 22.57Q43.26 20.50 43.26 17.07L43.26 17.07Q43.26 13.64 44.07 11.61Q44.87 9.58 46.30 8.67Q47.74 7.76 49.59 7.76L49.59 7.76Q51.48 7.76 52.90 8.67Q54.32 9.58 55.13 11.61Q55.93 13.64 55.93 17.07L55.93 17.07Q55.93 20.50 55.13 22.57Q54.32 24.63 52.90 25.53Q51.48 26.42 49.59 26.42ZM49.59 23.38L49.59 23.38Q50.72 23.38 51.33 22.39Q51.94 21.41 51.94 18.93L51.94 18.93L51.94 15.25Q51.94 12.77 51.33 11.79Q50.72 10.81 49.59 10.81L49.59 10.81Q48.48 10.81 47.86 11.79Q47.25 12.77 47.25 15.25L47.25 15.25L47.25 18.93Q47.25 21.41 47.86 22.39Q48.48 23.38 49.59 23.38ZM62.97 26.42L62.97 26.42Q60.90 26.42 59.80 25.32Q58.70 24.21 58.70 22.01L58.70 22.01L58.70 11.16L56.81 11.16L56.81 8.18L58.84 8.18L59.29 3.60L62.62 3.60L62.62 8.18L65.70 8.18L65.70 11.16L62.62 11.16L62.62 21.24Q62.62 22.32 63.11 22.75Q63.60 23.16 64.37 23.16L64.37 23.16Q64.72 23.16 65.08 23.13Q65.45 23.09 65.94 22.95L65.94 22.95L65.94 25.89Q64.47 26.42 62.97 26.42ZM73.99 26.42L73.99 26.42Q70.91 26.42 69.02 24.79Q67.13 23.16 67.13 19.84L67.13 19.84Q67.13 17.60 68.11 16.01Q69.09 14.41 70.81 13.01L70.81 13.01Q69.30 11.79 68.44 10.34Q67.59 8.88 67.59 6.92L67.59 6.92Q67.59 4.82 68.46 3.46Q69.34 2.09 70.81 1.41Q72.28 0.73 74.10 0.73L74.10 0.73Q75.85 0.73 77.28 1.39Q78.72 2.06 79.57 3.39Q80.43 4.72 80.43 6.68L80.43 6.68Q80.43 8.46 79.57 10.04Q78.72 11.61 77.18 12.98L77.18 12.98Q79.00 14.31 79.94 15.80Q80.89 17.28 80.89 19.66L80.89 19.66Q80.89 23.06 79.00 24.74Q77.11 26.42 73.99 26.42ZM74.34 11.12L74.34 11.12L74.80 11.44Q75.74 10.35 76.16 9.30Q76.58 8.25 76.58 7.03L76.58 7.03Q76.58 5.63 75.95 4.79Q75.32 3.95 73.99 3.95L73.99 3.95Q72.73 3.95 72.08 4.75Q71.44 5.56 71.44 6.92L71.44 6.92Q71.44 8.22 72.22 9.25Q73.01 10.28 74.34 11.12ZM71.02 19.31L71.02 19.31Q71.02 21.24 71.86 22.20Q72.70 23.16 73.99 23.16L73.99 23.16Q75.32 23.16 76.16 22.25Q77.00 21.34 77.00 19.63L77.00 19.63Q77.00 18.13 76.42 17.27Q75.85 16.41 74.52 15.53L74.52 15.53L73.05 14.59Q72.00 15.60 71.51 16.67Q71.02 17.74 71.02 19.31Z"/></g>
        
      </svg>
    