
      <svg data-logo="logo" xmlns="http://www.w3.org/2000/svg" viewBox="0 0 83 28">
        <g id="logogram" transform="translate(0, 14) rotate(0) "></g>
        <g id="logotype" transform="translate(0, 1)"><path fill="#000000" d="M5.08 26.28L5.08 26.28Q3.05 26.28 1.91 25.00Q0.77 23.73 0.77 21.41L0.77 21.41Q0.77 19.11 1.98 17.81Q3.19 16.52 5.36 15.74L5.36 15.74L8.58 14.55L8.58 13.12Q8.58 11.79 8.07 11.30Q7.56 10.81 6.72 10.81L6.72 10.81Q5.81 10.81 5.27 11.44Q4.73 12.07 4.55 13.75L4.55 13.75L0.95 13.29Q1.23 10.60 2.71 9.18Q4.20 7.76 6.90 7.76L6.90 7.76Q12.50 7.76 12.50 13.57L12.50 13.57L12.50 21.45Q12.50 22.32 12.51 23.23Q12.53 24.14 12.64 26L12.64 26L9.00 26L8.79 24.07Q8.23 25.20 7.26 25.74Q6.30 26.28 5.08 26.28ZM4.62 21.10L4.62 21.10Q4.62 22.43 5.09 22.95Q5.57 23.48 6.44 23.48L6.44 23.48Q7.42 23.48 8.00 22.83Q8.58 22.18 8.58 21.17L8.58 21.17L8.58 17.21L6.83 17.95Q5.81 18.41 5.22 19.07Q4.62 19.73 4.62 21.10ZM19.22 26L15.30 26L15.30 8.18L19.18 8.18L19.18 10.32Q19.81 8.99 20.84 8.38Q21.88 7.76 23.03 7.76L23.03 7.76Q24.89 7.76 25.97 9.02Q27.06 10.28 27.06 12.84L27.06 12.84L27.06 26L23.14 26L23.14 13.50Q23.14 12.07 22.66 11.47Q22.19 10.88 21.32 10.88L21.32 10.88Q20.48 10.88 19.85 11.46Q19.22 12.03 19.22 13.57L19.22 13.57L19.22 26ZM33.78 26L29.86 26L29.86 8.18L33.74 8.18L33.74 10.32Q34.37 8.99 35.40 8.38Q36.44 7.76 37.59 7.76L37.59 7.76Q39.45 7.76 40.53 9.02Q41.62 10.28 41.62 12.84L41.62 12.84L41.62 26L37.70 26L37.70 13.50Q37.70 12.07 37.22 11.47Q36.75 10.88 35.88 10.88L35.88 10.88Q35.04 10.88 34.41 11.46Q33.78 12.03 33.78 13.57L33.78 13.57L33.78 26ZM50.23 26.42L50.23 26.42Q48.37 26.42 46.94 25.53Q45.50 24.63 44.70 22.57Q43.89 20.50 43.89 17.07L43.89 17.07Q43.89 13.64 44.70 11.61Q45.50 9.58 46.94 8.67Q48.37 7.76 50.23 7.76L50.23 7.76Q52.12 7.76 53.53 8.67Q54.95 9.58 55.76 11.61Q56.56 13.64 56.56 17.07L56.56 17.07Q56.56 20.50 55.76 22.57Q54.95 24.63 53.53 25.53Q52.12 26.42 50.23 26.42ZM50.23 23.38L50.23 23.38Q51.35 23.38 51.96 22.39Q52.57 21.41 52.57 18.93L52.57 18.93L52.57 15.25Q52.57 12.77 51.96 11.79Q51.35 10.81 50.23 10.81L50.23 10.81Q49.11 10.81 48.49 11.79Q47.88 12.77 47.88 15.25L47.88 15.25L47.88 18.93Q47.88 21.41 48.49 22.39Q49.11 23.38 50.23 23.38ZM63.81 26.42L63.81 26.42Q61.74 26.42 60.64 25.32Q59.54 24.21 59.54 22.01L59.54 22.01L59.54 11.16L57.65 11.16L57.65 8.18L59.68 8.18L60.13 3.60L63.46 3.60L63.46 8.18L66.54 8.18L66.54 11.16L63.46 11.16L63.46 21.24Q63.46 22.32 63.95 22.75Q64.44 23.16 65.21 23.16L65.21 23.16Q65.56 23.16 65.92 23.13Q66.29 23.09 66.78 22.95L66.78 22.95L66.78 25.89Q65.31 26.42 63.81 26.42ZM75.04 26.42L75.04 26.42Q71.96 26.42 70.07 24.79Q68.18 23.16 68.18 19.84L68.18 19.84Q68.18 17.60 69.16 16.01Q70.14 14.41 71.86 13.01L71.86 13.01Q70.35 11.79 69.49 10.34Q68.64 8.88 68.64 6.92L68.64 6.92Q68.64 4.82 69.51 3.46Q70.39 2.09 71.86 1.41Q73.33 0.73 75.15 0.73L75.15 0.73Q76.90 0.73 78.33 1.39Q79.77 2.06 80.62 3.39Q81.48 4.72 81.48 6.68L81.48 6.68Q81.48 8.46 80.62 10.04Q79.77 11.61 78.23 12.98L78.23 12.98Q80.05 14.31 80.99 15.80Q81.94 17.28 81.94 19.66L81.94 19.66Q81.94 23.06 80.05 24.74Q78.16 26.42 75.04 26.42ZM75.39 11.12L75.39 11.12L75.85 11.44Q76.79 10.35 77.21 9.30Q77.63 8.25 77.63 7.03L77.63 7.03Q77.63 5.63 77.00 4.79Q76.37 3.95 75.04 3.95L75.04 3.95Q73.78 3.95 73.13 4.75Q72.49 5.56 72.49 6.92L72.49 6.92Q72.49 8.22 73.27 9.25Q74.06 10.28 75.39 11.12ZM72.07 19.31L72.07 19.31Q72.07 21.24 72.91 22.20Q73.75 23.16 75.04 23.16L75.04 23.16Q76.37 23.16 77.21 22.25Q78.05 21.34 78.05 19.63L78.05 19.63Q78.05 18.13 77.47 17.27Q76.90 16.41 75.57 15.53L75.57 15.53L74.10 14.59Q73.05 15.60 72.56 16.67Q72.07 17.74 72.07 19.31Z"/></g>
        
      </svg>
    